<svg version="1.2" xmlns="http://www.w3.org/2000/svg" viewBox="0 0 464 517" width="464" height="517"><style>.a{fill:#f5f5f5}</style><path fill-rule="evenodd" class="a" d="m456.3 99.8c11.1-38.6 2.4-57.7-40.5-60.8-77.2-5.5-192 46.9-269.7 104.2 16.4 31.2 32.5 62.6 48.7 93.3 1.6 2.9 3.9 7.5 6.6 12.5 5.2-13.4 10.4-28.2 16.1-40 20.6-43.8 79.4-145.8 133.8-142.9 105 5.7 93.2 295.9 79.9 371-3.5 19.8-20.1 107.4-58.4 71l-9-10.8c16.7 16.6 31.5 26.5 43.2-0.1 32.2-73.2 6.4-291.5-34.9-362.5-22.7-39.2-33.4-24.7-60.3 8.4-44.2 54.3-50.9 80.7-77.2 142-10.3 24.2-30.3 37.5-51.7 17.3-12.9-12-58.6-104.5-70.2-126.5-0.7-1.2-1.4-2.5-2.1-3.9-5.6 5.1-10.8 10.1-15.5 15.1-15.5 16.1-29.6 32.4-38.5 50.7-1.8 30.7-4.9 67.7-13.6 79.9-8.3 11.6-33.4 9-38.8-12.3-6.8-27.1-3-53.1 7.2-77.2 5.2-66.6 13.6-155.4 31-179 17.6-23.8 41.9-16.4 55.9 7.3 10.2 17.4 20.1 35.1 29.9 53.1 78.9-46 224.9-100.4 302.5-76.3 37.1 11.5 38.4 34 25.6 66.5zm-365.5 34.5c-6.4-12.1-13.1-24.6-19.1-35.2-3.6 17.1-6.5 38.9-8.7 58.7 9-8.4 18.3-16.3 27.8-23.5z"/></svg>